<svg width="512" height="512" viewBox="0 0 24 24" fill="none" xmlns="http://www.w3.org/2000/svg">
<rect width="24" height="24" rx="4" fill="#0f172a"/>
<path d="M12 6.042C14.1613 5.34075 16.5161 5 18 5C18.7303 5 19.4444 5.06452 20.125 5.1875M4 5.1875C4.55556 5.06452 5.2697 5 6 5C9.48387 5 12 6.7214 12 6.7214M12 6.042V20M12 6.7214C12 6.7214 9.48387 5 6 5C5.2697 5 4.55556 5.06452 4 5.1875M4 5.1875V19.5C4.58333 19.3333 5.25 19.25 6 19.25C9.48387 19.25 12 20 12 20M20.125 5.1875V19.5C19.4167 19.3333 18.6667 19.25 18 19.25C14.5161 19.25 12 20 12 20" stroke="#22d3ee" stroke-width="1.5" stroke-linecap="round" stroke-linejoin="round"/>
<path d="M17.25 9L17.5 8.25L17.75 9L18.5 9.25L17.75 9.5L17.5 10.25L17.25 9.5L16.5 9.25L17.25 9Z" fill="#22d3ee"/>
<path d="M15 6.5L15.15 6.15L15.5 6L15.15 5.85L15 5.5L14.85 5.85L14.5 6L14.85 6.15L15 6.5Z" fill="#22d3ee" />
</svg>
